<?xml version="1.0" encoding="utf-8"?>
<!-- Generator: Adobe Illustrator 26.2.1, SVG Export Plug-In . SVG Version: 6.00 Build 0)  -->
<svg version="1.0" id="Calque_1" xmlns="http://www.w3.org/2000/svg" xmlns:xlink="http://www.w3.org/1999/xlink" x="0px" y="0px"
	 viewBox="0 0 64 64" style="enable-background:new 0 0 64 64;" xml:space="preserve">
<rect x="50" y="50" style="fill:#1D1D1B;" width="12" height="12"/>
<rect x="34" y="50" style="fill:#1D1D1B;" width="12" height="12"/>
<rect x="18" y="50" style="fill:#1D1D1B;" width="12" height="12"/>
<rect x="2" y="50" style="fill:#1D1D1B;" width="12" height="12"/>
<rect x="50" y="34" transform="matrix(-1.836970e-16 1 -1 -1.836970e-16 96 -16)" style="fill:#1D1D1B;" width="12" height="12"/>
<rect x="34" y="34" transform="matrix(-1.836970e-16 1 -1 -1.836970e-16 80 7.105427e-15)" style="fill:#1D1D1B;" width="12" height="12"/>
<rect x="18" y="34" transform="matrix(-1.836970e-16 1 -1 -1.836970e-16 64 16)" style="fill:#1D1D1B;" width="12" height="12"/>
<rect x="34" y="18" transform="matrix(-1.836970e-16 1 -1 -1.836970e-16 64 -16)" style="fill:#1D1D1B;" width="12" height="12"/>
<rect x="49.95" y="18" transform="matrix(-1.836970e-16 1 -1 -1.836970e-16 79.9508 -31.9508)" style="fill:#1D1D1B;" width="12" height="12"/>
<rect x="49.95" y="2" transform="matrix(-1.836970e-16 1 -1 -1.836970e-16 63.9508 -47.9508)" style="fill:#1D1D1B;" width="12" height="12"/>
</svg>
